<svg width="441.4" height="97" viewBox="0 0 441.4 97" xmlns="http://www.w3.org/2000/svg">
  <g stroke-linecap="round" fill-rule="evenodd" 
     font-size="9pt" stroke="#000" stroke-width="0" 
     fill="#000" style="stroke:#000;stroke-width:0;fill:#000">
    <path d="M 6 68.8 L 6 18.3 A 13.079 13.079 0 0 0 5.713 15.494 A 9.921 9.921 0 0 0 4.6 12.6 A 6.606 6.606 0 0 0 3.77 11.453 Q 3.185 10.817 2.505 10.504 A 3.315 3.315 0 0 0 1.1 10.2 L 1.1 8 A 1.543 1.543 0 0 0 1.423 7.883 Q 3.075 7.15 12 1.9 A 21.872 21.872 0 0 1 12.567 2.071 Q 12.821 2.151 13.104 2.246 A 45.425 45.425 0 0 1 13.7 2.45 Q 14.7 2.8 16.35 4.4 A 5.715 5.715 0 0 1 17.463 5.867 A 4.779 4.779 0 0 1 18 8.1 A 12.341 12.341 0 0 0 18.302 7.942 Q 19.125 7.5 21.4 6.2 Q 28.644 2.089 30.474 2.002 A 1.614 1.614 0 0 1 30.55 2 A 4.123 4.123 0 0 1 31.978 2.275 Q 33.122 2.697 34.41 3.767 A 13.888 13.888 0 0 1 34.45 3.8 Q 36.6 5.6 37.7 8.1 A 20.967 20.967 0 0 0 37.808 8.045 Q 38.303 7.793 40.865 6.479 A 13993.319 13993.319 0 0 0 41.8 6 Q 49.6 2 51.2 2 A 5.257 5.257 0 0 1 54.112 2.923 Q 54.962 3.478 55.781 4.369 A 14.979 14.979 0 0 1 57.2 6.2 Q 59.162 9.143 59.749 11.743 A 9.779 9.779 0 0 1 60 13.9 L 60 64.2 A 9.181 9.181 0 0 0 60.301 66.652 Q 61.215 69.948 64.9 70.7 L 64.9 72.9 L 54 79 A 10.607 10.607 0 0 1 51.367 77.426 A 13.789 13.789 0 0 1 49.9 76.05 Q 48 74 48 72.2 L 48 23.2 Q 48 18.423 46.764 15.959 A 5.809 5.809 0 0 0 46.05 14.85 A 5.817 5.817 0 0 0 43.958 13.301 Q 42.038 12.419 39 12.3 L 39 64.2 A 9.181 9.181 0 0 0 39.301 66.652 Q 40.215 69.948 43.9 70.7 L 43.9 72.9 L 33 79 A 10.607 10.607 0 0 1 30.367 77.426 A 13.789 13.789 0 0 1 28.9 76.05 Q 27 74 27 72.2 L 27 23.2 Q 27 18.378 25.916 15.9 A 5.715 5.715 0 0 0 25.15 14.6 Q 23.456 12.494 18.87 12.316 A 22.478 22.478 0 0 0 18 12.3 L 18 63.6 Q 18 66.503 18.493 68.114 A 5.091 5.091 0 0 0 18.8 68.9 A 2.675 2.675 0 0 0 20.421 70.261 Q 21.133 70.5 22.1 70.5 L 22.1 73.6 L 1.6 82.2 L 0 79 Q 2.2 79 4.2 76.4 A 8.007 8.007 0 0 0 5.279 74.214 Q 5.954 72.166 5.997 69.206 A 28.023 28.023 0 0 0 6 68.8 Z M 382.3 44 L 382.3 33.2 A 1.519 1.519 0 0 1 382.785 32.257 Q 384.556 30.301 392.8 26.65 Q 401.578 22.763 404.136 22.125 A 3.452 3.452 0 0 1 404.9 22 A 1.557 1.557 0 0 1 405.862 22.342 Q 406.199 22.599 406.5 23.05 A 98.573 98.573 0 0 1 406.831 23.55 Q 407.234 24.162 407.512 24.608 A 28.109 28.109 0 0 1 407.6 24.75 A 20.685 20.685 0 0 1 407.828 25.131 Q 408.213 25.787 408.85 26.95 Q 409.7 28.5 410.3 29.5 A 6.55 6.55 0 0 0 411.04 30.606 Q 412.131 31.9 413.6 31.9 L 413.6 33.9 Q 412 34.6 409.4 36 Q 403.138 39.425 402.524 39.498 A 0.205 0.205 0 0 1 402.5 39.5 A 1.307 1.307 0 0 1 401.663 39.135 Q 400.749 38.356 399.751 35.915 A 31.285 31.285 0 0 1 399.25 34.6 A 31.588 31.588 0 0 0 398.619 32.966 Q 397.243 29.7 396.1 29.7 A 1.492 1.492 0 0 0 394.673 30.591 Q 394.3 31.335 394.3 32.7 L 394.3 45 A 13.42 13.42 0 0 0 394.358 46.308 Q 394.484 47.585 394.882 48.256 A 1.358 1.358 0 0 0 396.1 49 Q 396.5 49 402.3 46.4 Q 408.1 43.8 409.3 43.8 A 3.194 3.194 0 0 1 411.295 44.537 Q 412.343 45.355 413.262 47.081 A 15.446 15.446 0 0 1 413.55 47.65 A 17.009 17.009 0 0 1 414.798 51.356 Q 415.4 54.078 415.4 57.5 L 415.4 68.8 A 1.449 1.449 0 0 1 414.891 69.724 Q 413.236 71.423 406.205 74.414 A 149.192 149.192 0 0 1 403.95 75.35 A 403.247 403.247 0 0 1 401.24 76.44 Q 392.288 80 390.8 80 A 0.906 0.906 0 0 1 390.282 79.824 Q 389.96 79.603 389.65 79.103 A 5.336 5.336 0 0 1 389.45 78.75 Q 388.801 77.501 387.653 74.906 A 231.6 231.6 0 0 0 387.65 74.9 A 49.941 49.941 0 0 0 386.795 73.063 Q 386.088 71.625 385.4 70.5 A 6.55 6.55 0 0 0 384.66 69.394 Q 383.569 68.1 382.1 68.1 L 382.1 66.1 A 42.128 42.128 0 0 0 383.207 65.594 Q 384.356 65.051 385.888 64.264 A 150.997 150.997 0 0 0 386.4 64 A 356.45 356.45 0 0 1 387.884 63.18 Q 392.643 60.566 393.176 60.502 A 0.204 0.204 0 0 1 393.2 60.5 A 1.236 1.236 0 0 1 393.984 60.857 Q 395.254 61.952 396.95 66.4 A 46.987 46.987 0 0 0 397.731 68.33 Q 399.452 72.3 400.6 72.3 A 2.572 2.572 0 0 0 401.913 71.93 A 3.671 3.671 0 0 0 402.5 71.5 A 2.628 2.628 0 0 0 403.356 69.889 A 3.802 3.802 0 0 0 403.4 69.3 L 403.4 56.8 A 12.099 12.099 0 0 0 403.312 55.271 Q 403.106 53.665 402.418 52.927 A 1.981 1.981 0 0 0 400.9 52.3 Q 400.219 52.3 396.132 54.039 A 183.595 183.595 0 0 0 394.6 54.7 Q 389.1 57.1 388.4 57.1 Q 385.9 57.1 384.1 53.3 Q 382.489 49.898 382.32 45.133 A 32.021 32.021 0 0 1 382.3 44 Z M 331.3 36.6 L 331.3 68.4 A 12.156 12.156 0 0 1 331.031 70.795 Q 330.344 74.183 327.9 79.25 A 97.01 97.01 0 0 1 324.175 86.261 A 74.413 74.413 0 0 1 320.7 91.65 Q 317.034 96.811 315.602 96.993 A 0.807 0.807 0 0 1 315.5 97 A 11.39 11.39 0 0 1 313.771 96.854 Q 311.981 96.577 309.596 95.776 A 44.145 44.145 0 0 1 308.8 95.5 Q 305.42 94.293 302.818 93.086 A 45.989 45.989 0 0 1 301.6 92.5 L 298.7 91 L 298.7 88 L 302.1 88 Q 306 88 311 83.55 A 30.339 30.339 0 0 0 316.213 77.419 A 40.991 40.991 0 0 0 319.3 71.7 A 364.169 364.169 0 0 1 316.625 72.942 Q 309.444 76.239 307.116 76.857 A 3.485 3.485 0 0 1 306.3 77 Q 303.2 77 300.7 73.05 Q 298.2 69.1 298.2 64.2 L 298.2 31.3 A 0.798 0.798 0 0 1 298.586 30.816 Q 299.94 29.775 306.036 27.382 A 233.987 233.987 0 0 1 309.25 26.15 Q 320.068 22.087 322.691 22.002 A 3.349 3.349 0 0 1 322.8 22 A 3.483 3.483 0 0 1 324.526 22.508 Q 325.799 23.233 327.186 24.995 A 22.887 22.887 0 0 1 328.3 26.55 Q 331.3 31.1 331.3 36.6 Z M 266.2 13.5 L 266.2 69.7 A 0.707 0.707 0 0 1 265.846 70.099 Q 264.334 71.19 256.353 74.32 A 342.668 342.668 0 0 1 255.25 74.75 A 245.551 245.551 0 0 1 251.443 76.194 Q 244.038 78.927 241.957 78.998 A 3.147 3.147 0 0 1 241.85 79 A 3.612 3.612 0 0 1 240.172 78.54 Q 238.369 77.593 236.25 74.7 A 16.252 16.252 0 0 1 233.235 66.812 A 21.016 21.016 0 0 1 233.1 64.4 L 233.1 16.4 A 10.661 10.661 0 0 0 232.882 14.15 Q 232.166 10.841 229.091 10.121 A 6.604 6.604 0 0 0 229 10.1 L 229 7.9 L 239.1 2.2 A 10.607 10.607 0 0 1 241.733 3.774 A 13.789 13.789 0 0 1 243.2 5.15 Q 245.1 7.2 245.1 9 L 257.5 2 A 2.474 2.474 0 0 1 258.555 2.281 Q 259.945 2.949 261.975 5.207 A 36.277 36.277 0 0 1 262.75 6.1 A 21.543 21.543 0 0 1 264.418 8.343 Q 266.133 11.023 266.197 13.32 A 6.378 6.378 0 0 1 266.2 13.5 Z M 171.2 30.2 L 171.2 28 L 182.2 22 A 17.3 17.3 0 0 1 182.76 22.171 Q 183.256 22.331 183.85 22.55 A 3.336 3.336 0 0 1 184.404 22.824 Q 184.965 23.161 185.695 23.801 A 20.582 20.582 0 0 1 186.45 24.5 A 5.962 5.962 0 0 1 187.487 25.811 A 4.533 4.533 0 0 1 188.1 28.1 A 2.607 2.607 0 0 0 188.401 27.939 Q 189.187 27.474 191.658 25.774 A 358.818 358.818 0 0 0 192.85 24.95 A 61.655 61.655 0 0 1 194.337 23.947 Q 197.313 22.008 198.292 22 A 0.988 0.988 0 0 1 198.3 22 A 5.257 5.257 0 0 1 201.212 22.923 Q 202.062 23.478 202.881 24.369 A 14.979 14.979 0 0 1 204.3 26.2 Q 206.262 29.143 206.849 31.743 A 9.779 9.779 0 0 1 207.1 33.9 L 207.1 38.8 L 196.8 44.6 L 195.1 43.2 Q 195.1 36.708 194.144 34.517 A 2.24 2.24 0 0 0 193.5 33.6 A 5.817 5.817 0 0 0 191.897 32.808 Q 190.398 32.316 188.24 32.3 A 19.645 19.645 0 0 0 188.1 32.3 L 188.1 64.2 A 13.616 13.616 0 0 0 188.293 66.596 Q 188.989 70.473 192.2 71.1 L 192.2 73.3 L 182.1 79 A 10.607 10.607 0 0 1 179.467 77.426 A 13.789 13.789 0 0 1 178 76.05 Q 176.1 74 176.1 72.2 L 176.1 39 Q 176.1 34.774 174.67 32.577 A 5.834 5.834 0 0 0 174.55 32.4 A 7.697 7.697 0 0 0 173.709 31.386 Q 172.522 30.2 171.2 30.2 Z M 101 35.2 L 101 63.5 Q 101 67.2 102.2 68.65 A 5.241 5.241 0 0 0 103.696 69.871 Q 104.339 70.232 105.139 70.488 A 10.605 10.605 0 0 0 105.9 70.7 L 105.9 72.9 L 95 79 A 10.607 10.607 0 0 1 92.367 77.426 A 13.789 13.789 0 0 1 90.9 76.05 A 10.695 10.695 0 0 1 89.992 74.94 Q 89 73.529 89 72.3 L 76.5 79 Q 76.2 78.8 75.6 78.45 A 6.291 6.291 0 0 1 75.26 78.234 Q 74.649 77.821 73.55 76.95 Q 72.1 75.8 71 74.5 Q 68 71.2 68 67 L 68 50.6 A 1.528 1.528 0 0 1 68.346 49.715 Q 69.341 48.355 73.2 46.5 A 75.122 75.122 0 0 1 82.95 42.604 A 69.139 69.139 0 0 1 83.6 42.4 L 88.9 40.7 A 16.992 16.992 0 0 0 88.688 37.915 Q 88.442 36.435 87.908 35.285 A 6.543 6.543 0 0 0 85.9 32.75 A 7.96 7.96 0 0 0 83.77 31.662 Q 81.56 30.881 78.045 30.625 A 51.748 51.748 0 0 0 74.3 30.5 L 74.3 27.5 Q 86.948 23.012 90.54 22.186 A 5.973 5.973 0 0 1 91.7 22 A 5.546 5.546 0 0 1 94.678 22.914 Q 95.584 23.481 96.465 24.401 A 15.891 15.891 0 0 1 98 26.3 A 17.505 17.505 0 0 1 100.153 30.397 A 14.12 14.12 0 0 1 101 35.2 Z M 111 67.7 L 111 36.8 A 13.616 13.616 0 0 0 110.807 34.404 Q 110.111 30.527 106.9 29.9 L 106.9 27.7 L 117 22 A 10.607 10.607 0 0 1 119.633 23.574 A 13.789 13.789 0 0 1 121.1 24.95 Q 123 27 123 28.8 L 123 68.4 A 119.28 119.28 0 0 1 122.657 77.628 A 97.261 97.261 0 0 1 122.1 82.95 A 93.205 93.205 0 0 1 121.514 86.775 Q 120.804 90.812 119.9 93.35 A 17.594 17.594 0 0 1 119.409 94.59 Q 118.551 96.52 117.651 96.904 A 1.139 1.139 0 0 1 117.2 97 Q 114.819 97 111.121 95.639 A 38.966 38.966 0 0 1 110.75 95.5 A 68.582 68.582 0 0 1 107.963 94.375 Q 105.788 93.437 104.1 92.5 L 101.4 91 L 101.4 88 L 104.8 88 Q 107.965 88 109.372 84.237 A 12.208 12.208 0 0 0 109.65 83.4 Q 110.668 79.932 110.918 72.77 A 145.701 145.701 0 0 0 111 67.7 Z M 374.3 33.2 L 374.3 50 Q 374.3 51.563 370.306 53.728 A 36.15 36.15 0 0 1 369 54.4 A 88.787 88.787 0 0 1 362.512 57.279 A 73.767 73.767 0 0 1 358.75 58.65 A 359.558 359.558 0 0 1 357.584 59.037 Q 353.75 60.3 353.4 60.3 A 13.29 13.29 0 0 0 353.845 63.878 Q 354.997 67.998 359.128 69.495 A 11.964 11.964 0 0 0 360.1 69.8 Q 363.4 70.6 368 70.6 L 368 73.5 A 1425.435 1425.435 0 0 1 364.139 74.789 Q 352.606 78.62 350.769 78.966 A 1.622 1.622 0 0 1 350.5 79 A 4.925 4.925 0 0 1 348.07 78.312 Q 346.253 77.29 344.4 74.75 A 16.166 16.166 0 0 1 341.332 65.943 A 20.186 20.186 0 0 1 341.3 64.8 L 341.3 31.2 Q 341.3 30.5 352.7 26.25 Q 362.23 22.697 364.981 22.114 A 4.317 4.317 0 0 1 365.8 22 A 0.771 0.771 0 0 1 366.065 22.064 Q 366.66 22.297 368.073 23.375 A 38.799 38.799 0 0 1 368.3 23.55 A 16.39 16.39 0 0 1 370.05 25.136 Q 371.175 26.303 372.3 27.85 A 12.371 12.371 0 0 1 373.479 29.807 Q 374.068 31.045 374.234 32.252 A 6.924 6.924 0 0 1 374.3 33.2 Z M 433.5 11.6 L 436.3 11.6 L 436.3 23.5 L 441.4 23.5 L 440.4 28.4 L 436.3 28.4 L 436.3 64.2 A 13.616 13.616 0 0 0 436.493 66.596 Q 437.189 70.473 440.4 71.1 L 440.4 73.3 L 430.3 79 A 10.607 10.607 0 0 1 427.667 77.426 A 13.789 13.789 0 0 1 426.2 76.05 Q 424.3 74 424.3 72.2 L 424.3 28.5 L 420.2 28.5 L 421.2 24.3 A 5.808 5.808 0 0 0 423.303 23.864 Q 425.595 22.971 428.45 20.25 Q 432.7 16.2 433.5 11.6 Z M 133 64.4 L 133 31.2 Q 133 30.5 144.4 26.25 Q 153.93 22.697 156.681 22.114 A 4.317 4.317 0 0 1 157.5 22 A 2.277 2.277 0 0 1 158.476 22.264 Q 159.801 22.907 161.794 25.115 A 37.717 37.717 0 0 1 162.65 26.1 A 21.543 21.543 0 0 1 164.318 28.343 Q 166.033 31.023 166.097 33.32 A 6.378 6.378 0 0 1 166.1 33.5 L 166.1 69.7 A 0.707 0.707 0 0 1 165.746 70.099 Q 164.234 71.19 156.253 74.32 A 342.668 342.668 0 0 1 155.15 74.75 A 245.551 245.551 0 0 1 151.343 76.194 Q 143.938 78.927 141.857 78.998 A 3.147 3.147 0 0 1 141.75 79 A 3.612 3.612 0 0 1 140.072 78.54 Q 138.269 77.593 136.15 74.7 A 16.252 16.252 0 0 1 133.135 66.812 A 21.016 21.016 0 0 1 133 64.4 Z M 288.2 28.8 L 288.2 64.2 A 13.616 13.616 0 0 0 288.393 66.596 Q 289.089 70.473 292.3 71.1 L 292.3 73.3 L 282.2 79 A 10.607 10.607 0 0 1 279.567 77.426 A 13.789 13.789 0 0 1 278.1 76.05 Q 276.2 74 276.2 72.2 L 276.2 36.8 A 13.616 13.616 0 0 0 276.007 34.404 Q 275.311 30.527 272.1 29.9 L 272.1 27.7 L 282.2 22 A 10.607 10.607 0 0 1 284.833 23.574 A 13.789 13.789 0 0 1 286.3 24.95 Q 288.2 27 288.2 28.8 Z M 254.1 68.2 L 254.1 21 A 14.556 14.556 0 0 0 253.898 18.453 Q 253.102 14.002 249.182 13.902 A 7.133 7.133 0 0 0 249 13.9 A 5.631 5.631 0 0 0 246.433 14.538 A 7.947 7.947 0 0 0 245.1 15.4 L 245.1 62.4 Q 245.1 69.597 249.924 69.794 A 6.749 6.749 0 0 0 250.2 69.8 A 5.071 5.071 0 0 0 252.182 69.376 Q 252.885 69.08 253.601 68.575 A 10.218 10.218 0 0 0 254.1 68.2 Z M 154 68.2 L 154 38.7 Q 154 31.503 149.176 31.306 A 6.749 6.749 0 0 0 148.9 31.3 A 5.631 5.631 0 0 0 146.333 31.938 A 7.947 7.947 0 0 0 145 32.8 L 145 62.4 Q 145 69.597 149.824 69.794 A 6.749 6.749 0 0 0 150.1 69.8 A 5.071 5.071 0 0 0 152.082 69.376 Q 152.785 69.08 153.501 68.575 A 10.218 10.218 0 0 0 154 68.2 Z M 319.3 67.5 L 319.3 40 A 25.209 25.209 0 0 0 319.142 37.037 Q 318.787 34.063 317.641 32.604 A 3.552 3.552 0 0 0 314.7 31.2 A 6.827 6.827 0 0 0 310.52 32.63 A 8.563 8.563 0 0 0 310.3 32.8 L 310.3 55.8 A 34.971 34.971 0 0 0 310.421 58.826 Q 310.68 61.795 311.494 63.591 A 5.71 5.71 0 0 0 312.5 65.15 Q 314.7 67.5 319.3 67.5 Z M 353.3 32.7 L 353.3 55.8 A 16.399 16.399 0 0 0 357.342 54.125 Q 361.826 51.444 362.255 46.15 A 14.234 14.234 0 0 0 362.3 45 L 362.3 37.9 Q 362.3 35.1 361 33.15 Q 359.7 31.2 357.7 31.2 A 6.341 6.341 0 0 0 355.839 31.497 Q 355.047 31.741 354.201 32.183 A 13.474 13.474 0 0 0 353.3 32.7 Z M 89 67.8 L 89 45.2 Q 87.086 45.889 85.905 46.402 A 19.214 19.214 0 0 0 85.25 46.7 Q 84 47.3 82.6 48.6 A 6.865 6.865 0 0 0 80.929 51.098 Q 80.058 53.23 80.004 56.461 A 25.894 25.894 0 0 0 80 56.9 L 80 63.4 A 7.127 7.127 0 0 0 80.256 65.356 A 5.497 5.497 0 0 0 81.55 67.65 A 5.973 5.973 0 0 0 82.709 68.623 A 4.22 4.22 0 0 0 85 69.3 Q 86.9 69.3 89 67.8 Z M 109.5 11.7 L 109.5 5.6 A 0.262 0.262 0 0 1 109.634 5.452 Q 110.207 5.049 113.232 3.907 A 129.3 129.3 0 0 1 113.65 3.75 Q 117.337 2.373 118.261 2.219 A 1.202 1.202 0 0 1 118.45 2.2 Q 119.1 2.2 120.35 3.9 A 6.921 6.921 0 0 1 121.202 5.4 A 5.29 5.29 0 0 1 121.6 7.4 L 121.6 14.7 A 0.26 0.26 0 0 1 121.471 14.848 Q 120.918 15.251 118.003 16.393 A 121.835 121.835 0 0 1 117.6 16.55 A 89.317 89.317 0 0 1 116.209 17.077 Q 113.503 18.073 112.739 18.099 A 1.163 1.163 0 0 1 112.7 18.1 A 1.209 1.209 0 0 1 112.105 17.925 Q 111.443 17.55 110.666 16.374 A 11.491 11.491 0 0 1 110.65 16.35 Q 109.692 14.892 109.532 12.635 A 13.248 13.248 0 0 1 109.5 11.7 Z M 274.7 9.5 L 274.7 3.4 A 0.262 0.262 0 0 1 274.834 3.252 Q 275.407 2.849 278.432 1.707 A 129.3 129.3 0 0 1 278.85 1.55 Q 282.537 0.173 283.461 0.019 A 1.202 1.202 0 0 1 283.65 0 Q 284.3 0 285.55 1.7 A 6.921 6.921 0 0 1 286.402 3.2 A 5.29 5.29 0 0 1 286.8 5.2 L 286.8 12.5 A 0.26 0.26 0 0 1 286.671 12.648 Q 286.118 13.051 283.203 14.193 A 121.835 121.835 0 0 1 282.8 14.35 A 89.317 89.317 0 0 1 281.409 14.877 Q 278.703 15.873 277.939 15.899 A 1.163 1.163 0 0 1 277.9 15.9 A 1.209 1.209 0 0 1 277.305 15.725 Q 276.643 15.35 275.866 14.174 A 11.491 11.491 0 0 1 275.85 14.15 Q 274.892 12.692 274.732 10.435 A 13.248 13.248 0 0 1 274.7 9.5 Z" 
          vector-effect="non-scaling-stroke"/>
  </g>
</svg>