<svg width="103.1" height="80.3" viewBox="0 0 103.1 80.3" xmlns="http://www.w3.org/2000/svg">
  <g stroke-linecap="round" fill-rule="evenodd" font-size="9pt" stroke="#000" stroke-width="0" fill="#000" style="stroke:#000;stroke-width:0;fill:#000">
    <path d="M 6 66.9 L 6 16.4 A 13.079 13.079 0 0 0 5.713 13.594 A 9.921 9.921 0 0 0 4.6 10.7 A 6.606 6.606 0 0 0 3.77 9.553 Q 3.185 8.917 2.505 8.604 A 3.315 3.315 0 0 0 1.1 8.3 L 1.1 6.1 A 1.543 1.543 0 0 0 1.423 5.983 Q 3.075 5.25 12 0 A 21.872 21.872 0 0 1 12.567 0.171 Q 12.821 0.251 13.104 0.346 A 45.425 45.425 0 0 1 13.7 0.55 Q 14.7 0.9 16.35 2.5 A 5.715 5.715 0 0 1 17.463 3.967 A 4.779 4.779 0 0 1 18 6.2 A 12.341 12.341 0 0 0 18.302 6.042 Q 19.125 5.6 21.4 4.3 Q 28.644 0.189 30.474 0.102 A 1.614 1.614 0 0 1 30.55 0.1 A 4.123 4.123 0 0 1 31.978 0.375 Q 33.122 0.797 34.41 1.867 A 13.888 13.888 0 0 1 34.45 1.9 Q 36.6 3.7 37.7 6.2 A 20.967 20.967 0 0 0 37.808 6.145 Q 38.303 5.893 40.865 4.579 A 13993.319 13993.319 0 0 0 41.8 4.1 Q 49.6 0.1 51.2 0.1 A 5.257 5.257 0 0 1 54.112 1.023 Q 54.962 1.578 55.781 2.469 A 14.979 14.979 0 0 1 57.2 4.3 Q 59.162 7.243 59.749 9.843 A 9.779 9.779 0 0 1 60 12 L 60 62.3 A 9.181 9.181 0 0 0 60.301 64.752 Q 61.215 68.048 64.9 68.8 L 64.9 71 L 54 77.1 A 10.607 10.607 0 0 1 51.367 75.526 A 13.789 13.789 0 0 1 49.9 74.15 Q 48 72.1 48 70.3 L 48 21.3 Q 48 16.523 46.764 14.059 A 5.809 5.809 0 0 0 46.05 12.95 A 5.817 5.817 0 0 0 43.958 11.401 Q 42.038 10.519 39 10.4 L 39 62.3 A 9.181 9.181 0 0 0 39.301 64.752 Q 40.215 68.048 43.9 68.8 L 43.9 71 L 33 77.1 A 10.607 10.607 0 0 1 30.367 75.526 A 13.789 13.789 0 0 1 28.9 74.15 Q 27 72.1 27 70.3 L 27 21.3 Q 27 16.478 25.916 14 A 5.715 5.715 0 0 0 25.15 12.7 Q 23.456 10.594 18.87 10.416 A 22.478 22.478 0 0 0 18 10.4 L 18 61.7 Q 18 64.603 18.493 66.214 A 5.091 5.091 0 0 0 18.8 67 A 2.675 2.675 0 0 0 20.421 68.361 Q 21.133 68.6 22.1 68.6 L 22.1 71.7 L 1.6 80.3 L 0 77.1 Q 2.2 77.1 4.2 74.5 A 8.007 8.007 0 0 0 5.279 72.314 Q 5.954 70.266 5.997 67.306 A 28.023 28.023 0 0 0 6 66.9 Z M 103.1 11.6 L 103.1 67.8 A 0.707 0.707 0 0 1 102.746 68.199 Q 101.234 69.29 93.253 72.42 A 342.668 342.668 0 0 1 92.15 72.85 A 245.551 245.551 0 0 1 88.343 74.294 Q 80.938 77.027 78.857 77.098 A 3.147 3.147 0 0 1 78.75 77.1 A 3.612 3.612 0 0 1 77.072 76.64 Q 75.269 75.693 73.15 72.8 A 16.252 16.252 0 0 1 70.135 64.912 A 21.016 21.016 0 0 1 70 62.5 L 70 14.5 A 10.661 10.661 0 0 0 69.782 12.25 Q 69.066 8.941 65.991 8.221 A 6.604 6.604 0 0 0 65.9 8.2 L 65.9 6 L 76 0.3 A 10.607 10.607 0 0 1 78.633 1.874 A 13.789 13.789 0 0 1 80.1 3.25 Q 82 5.3 82 7.1 L 94.4 0.1 A 2.474 2.474 0 0 1 95.455 0.381 Q 96.845 1.049 98.875 3.307 A 36.277 36.277 0 0 1 99.65 4.2 A 21.543 21.543 0 0 1 101.318 6.443 Q 103.033 9.123 103.097 11.42 A 6.378 6.378 0 0 1 103.1 11.6 Z M 91 66.3 L 91 19.1 A 14.556 14.556 0 0 0 90.798 16.553 Q 90.002 12.102 86.082 12.002 A 7.133 7.133 0 0 0 85.9 12 A 5.631 5.631 0 0 0 83.333 12.638 A 7.947 7.947 0 0 0 82 13.5 L 82 60.5 Q 82 67.697 86.824 67.894 A 6.749 6.749 0 0 0 87.1 67.9 A 5.071 5.071 0 0 0 89.082 67.476 Q 89.785 67.18 90.501 66.675 A 10.218 10.218 0 0 0 91 66.3 Z"/>
  </g>
</svg>