<?xml version="1.0" standalone="no"?>
<!DOCTYPE svg PUBLIC "-//W3C//DTD SVG 20010904//EN"
 "http://www.w3.org/TR/2001/REC-SVG-20010904/DTD/svg10.dtd">
<svg version="1.0" xmlns="http://www.w3.org/2000/svg"
 width="660.000000pt" height="660.000000pt" viewBox="0 0 660.000000 660.000000"
 preserveAspectRatio="xMidYMid meet">
<g transform="translate(0.000000,660.000000) scale(0.100000,-0.100000)"
fill="#000000" stroke="none">
<path d="M985 5279 c-93 -55 -221 -127 -282 -160 l-113 -60 0 -54 c0 -51 2
-55 28 -61 122 -28 202 -162 223 -374 6 -58 8 -633 6 -1450 -4 -1449 -3 -1418
-52 -1535 -42 -98 -132 -186 -212 -207 -24 -6 -43 -12 -43 -14 0 -15 77 -154
85 -154 5 0 185 74 400 164 214 90 449 189 520 219 l130 54 3 81 3 80 -56 12
c-68 14 -108 51 -132 123 -17 49 -18 146 -21 1475 l-3 1422 73 -6 c237 -19
328 -94 375 -307 15 -64 17 -226 20 -1461 l4 -1390 25 -49 c13 -27 33 -61 45
-76 33 -43 140 -131 191 -157 l48 -24 280 157 280 158 0 60 0 61 -44 12 c-71
19 -126 68 -166 147 l-35 70 -3 1403 -2 1403 52 -6 c99 -12 152 -26 216 -57
96 -47 145 -117 179 -256 15 -60 17 -206 22 -1462 l6 -1395 30 -54 c35 -63
151 -175 223 -214 l52 -28 283 158 282 159 0 58 0 59 -40 12 c-92 27 -152 85
-192 185 -17 42 -18 131 -23 1455 -6 1584 2 1439 -82 1595 -110 207 -238 319
-362 320 -65 0 -174 -44 -468 -191 -131 -66 -240 -119 -243 -119 -2 0 -16 23
-31 52 -15 29 -62 87 -108 133 -86 86 -157 125 -230 125 -68 0 -214 -66 -506
-229 l-145 -82 -8 33 c-18 69 -43 112 -95 165 -49 50 -133 100 -197 117 -14 3
-75 -27 -190 -95z"/>
<path d="M5115 5191 c-170 -98 -313 -176 -317 -174 -5 2 -8 14 -8 27 0 72
-137 231 -250 290 l-55 28 -262 -147 -263 -147 0 -57 1 -56 61 -30 c73 -35
120 -96 137 -175 8 -35 11 -450 11 -1338 0 -787 4 -1324 10 -1382 24 -227 114
-416 267 -561 132 -126 175 -126 534 -3 320 110 758 287 863 348 l46 27 0
1505 0 1506 -30 74 c-36 90 -83 161 -182 274 -101 115 -177 171 -230 169 -13
-1 -162 -81 -333 -178z m-11 -456 c53 -22 108 -83 129 -142 10 -28 22 -93 27
-145 5 -51 9 -637 10 -1303 l0 -1210 -38 -27 c-57 -40 -134 -62 -196 -55 -116
12 -184 76 -216 204 -20 76 -20 112 -18 1353 l3 1274 63 33 c54 28 74 33 132
33 38 0 84 -7 104 -15z"/>
</g>
</svg>
